<svg width="30" height="28" viewBox="0 0 30 28" fill="none" xmlns="http://www.w3.org/2000/svg">
<path d="M2.925 24.375V2.925V9.05937V8.775V24.375ZM5.85 15.1125H15.5931C15.6519 14.5979 15.749 14.0969 15.8844 13.6094C16.0198 13.1219 16.2229 12.6479 16.4937 12.1875H5.85V15.1125ZM5.85 21.45H14.3C14.7062 21.0979 15.1328 20.7797 15.5797 20.4953C16.0266 20.2109 16.4937 19.9604 16.9812 19.7437C16.8458 19.5542 16.7172 19.3578 16.5953 19.1547C16.4734 18.9516 16.3583 18.7417 16.25 18.525H5.85V21.45ZM5.85 8.775H21.45V5.85H5.85V8.775ZM2.925 27.3C2.12063 27.3 1.43203 27.0136 0.859218 26.4408C0.286406 25.868 0 25.1794 0 24.375V2.925C0 2.12063 0.286406 1.43203 0.859218 0.85922C1.43203 0.286407 2.12063 0 2.925 0H24.375C25.1794 0 25.868 0.286407 26.4408 0.85922C27.0136 1.43203 27.3 2.12063 27.3 2.925V10.8062C26.8937 10.4 26.4469 10.0479 25.9594 9.75C25.4719 9.45208 24.9437 9.22187 24.375 9.05937V2.925H2.925V24.375H12.7156C12.6885 24.5104 12.675 24.6414 12.675 24.7678V27.3H2.925ZM19.6625 18.3718C18.9042 17.6195 18.525 16.6986 18.525 15.6093C18.525 14.5198 18.9011 13.5958 19.6532 12.8375C20.4055 12.0792 21.3264 11.7 22.4157 11.7C23.5052 11.7 24.4292 12.0761 25.1875 12.8282C25.9458 13.5805 26.325 14.5014 26.325 15.5907C26.325 16.6802 25.9489 17.6042 25.1968 18.3625C24.4445 19.1208 23.5236 19.5 22.4343 19.5C21.3448 19.5 20.4208 19.1239 19.6625 18.3718ZM15.6 27.3V25.1469C15.6 24.8468 15.6542 24.5686 15.7625 24.3124C15.8708 24.0562 16.0333 23.8333 16.25 23.6437C17.1167 22.9125 18.0781 22.3641 19.1344 21.9984C20.1906 21.6328 21.2875 21.45 22.425 21.45C23.5625 21.45 24.6594 21.6328 25.7156 21.9984C26.7719 22.3641 27.7333 22.9125 28.6 23.6437C28.8167 23.8333 28.9792 24.0562 29.0875 24.3124C29.1958 24.5686 29.25 24.8468 29.25 25.1469V27.3H15.6Z" fill="currentColor"/>
</svg>
